<?xml version="1.0" encoding="UTF-8" standalone="no"?>
<!DOCTYPE svg PUBLIC "-//W3C//DTD SVG 1.1//EN" "http://www.w3.org/Graphics/SVG/1.1/DTD/svg11.dtd">
<svg xmlns="http://www.w3.org/2000/svg" version="1.1" viewBox="0.00 0.00 1544.00 1615.00">
<style>
  @keyframes pulse {
    0%, 100% { opacity: 0.3; transform: scale(1); }
    50% { opacity: 0.8; transform: scale(1.05); }
  }
  .pulse-ring {
    animation: pulse 1.5s ease-in-out infinite;
    transform-origin: center;
  }
</style>
<!-- Pulsing background ring -->
<circle class="pulse-ring" cx="772" cy="807" r="750" fill="none" stroke="#fd6702" stroke-width="40" />
<g stroke-width="2.00" fill="none" stroke-linecap="butt">
<path stroke="#7f3401" vector-effect="non-scaling-stroke" d="
  M 535.42 144.21
  Q 541.79 147.68 547.01 152.79
  A 3.80 3.62 81.4 0 0 547.76 153.37
  Q 549.17 154.22 549.66 154.59
  C 563.81 165.44 577.49 174.88 590.87 185.44
  Q 600.69 193.20 613.94 203.26
  C 622.14 209.49 627.01 213.51 634.86 219.64
  Q 667.68 245.28 673.50 249.95
  Q 681.57 256.41 682.55 257.27
  Q 688.68 262.58 691.36 264.61
  C 701.39 272.23 706.81 276.99 715.86 284.17
  C 720.14 287.55 724.05 291.19 727.99 294.29
  Q 732.96 298.21 737.11 301.75
  Q 774.91 334.12 778.91 337.65
  C 809.72 364.85 839.29 390.66 872.58 420.72
  Q 893.19 439.34 930.58 472.72
  C 943.55 484.29 959.84 496.96 973.54 507.49
  Q 1002.76 529.96 1025.61 559.30
  C 1035.57 572.10 1048.28 587.59 1054.09 594.91
  C 1064.75 608.32 1075.33 621.47 1086.46 633.88
  C 1103.53 652.92 1119.55 671.91 1136.78 690.90
  C 1151.69 707.34 1164.81 723.14 1180.21 740.47
  Q 1205.61 769.07 1232.92 800.93
  C 1237.90 806.74 1244.63 813.76 1251.03 821.25
  Q 1263.48 835.81 1275.43 849.51
  Q 1284.40 859.79 1310.72 892.92
  Q 1326.87 913.25 1326.88 913.27
  Q 1332.68 920.16 1364.42 962.47
  C 1369.54 969.30 1372.65 972.92 1376.98 978.93
  Q 1378.76 981.41 1386.34 991.38
  C 1397.21 1005.69 1404.07 1015.64 1412.41 1026.15
  A 1.25 1.22 75.9 0 0 1413.12 1026.59
  L 1413.86 1026.75"
/>
<path stroke="#7f3401" vector-effect="non-scaling-stroke" d="
  M 1388.97 1064.67
  Q 1388.09 1064.95 1388.18 1063.81
  A 0.78 0.75 27.0 0 0 1387.99 1063.26
  Q 1375.89 1049.77 1358.34 1031.21
  C 1347.60 1019.84 1338.55 1009.21 1327.85 998.13
  Q 1316.77 986.65 1309.40 978.21
  C 1300.76 968.30 1292.88 960.52 1283.01 949.67
  C 1271.54 937.06 1259.81 925.22 1248.01 912.79
  Q 1239.40 903.70 1233.75 898.45
  C 1221.05 886.63 1211.12 876.46 1198.40 865.00
  Q 1191.02 858.35 1177.48 845.86
  Q 1169.22 838.24 1136.91 810.82
  Q 1125.64 801.26 1121.61 797.77
  C 1106.93 785.02 1094.12 774.27 1083.65 764.83
  C 1069.33 751.92 1060.81 744.85 1049.52 734.35
  C 1036.48 722.21 1026.88 714.32 1014.75 702.41
  Q 1010.86 698.59 991.35 680.35
  C 983.83 673.32 976.31 665.26 969.75 659.06
  Q 962.49 652.21 953.85 643.19
  Q 944.06 632.97 923.05 611.65
  C 915.86 604.36 909.72 597.45 903.14 590.65
  Q 897.53 584.85 888.31 574.68
  Q 875.37 560.37 856.14 539.68
  Q 851.12 534.28 848.43 531.06
  C 842.01 523.40 835.37 516.50 828.88 509.04
  Q 793.85 468.71 787.42 461.45
  Q 775.51 447.99 760.52 430.24
  Q 744.77 411.58 733.76 398.97
  Q 726.04 390.13 709.14 370.60
  Q 695.50 354.84 683.91 343.17
  Q 648.13 307.14 632.13 292.70
  Q 605.58 268.75 601.23 264.79
  Q 591.06 255.52 581.09 246.10
  Q 568.60 234.29 560.92 227.43
  Q 548.79 216.57 544.35 212.27
  C 529.28 197.68 518.30 188.35 498.89 170.66
  Q 498.61 170.41 493.71 165.72
  Q 490.11 162.27 486.07 159.37"
/>
<path stroke="#7f3401" vector-effect="non-scaling-stroke" d="
  M 309.94 305.31
  Q 317.44 312.26 325.22 319.69
  Q 334.03 328.12 340.50 334.07
  Q 354.41 346.85 371.76 363.25
  Q 377.23 368.42 413.13 399.22
  Q 426.00 410.27 437.97 419.53
  Q 454.42 432.27 463.52 438.46
  Q 488.52 455.48 496.19 459.80
  Q 518.41 472.32 522.57 474.70
  Q 533.15 480.76 551.46 493.06
  C 556.83 496.67 562.30 501.36 566.93 504.78
  Q 572.06 508.57 577.80 514.20
  Q 593.83 529.91 606.55 544.64
  Q 613.67 552.87 615.78 555.27
  Q 621.71 562.02 624.53 565.51
  Q 642.27 587.52 648.60 594.93
  Q 676.47 627.60 710.72 658.28
  Q 725.46 671.49 740.07 681.16
  Q 752.76 689.57 754.12 690.47
  C 760.08 694.44 769.61 700.23 776.64 705.61
  Q 787.17 713.67 798.04 724.45
  Q 805.87 732.22 823.69 753.81
  Q 849.70 785.34 876.42 822.12
  Q 883.54 831.93 885.92 834.92
  Q 893.64 844.61 895.68 847.49
  Q 903.03 857.87 909.91 866.05
  Q 939.86 901.67 955.74 918.87
  Q 970.38 934.73 977.87 942.97
  C 1001.20 968.66 1021.61 989.59 1052.35 1021.76
  Q 1055.08 1024.61 1058.52 1028.49
  C 1063.07 1033.61 1068.59 1038.51 1072.93 1042.98
  Q 1075.16 1045.28 1091.87 1062.13
  C 1096.34 1066.64 1101.49 1070.96 1106.10 1075.68
  Q 1110.16 1079.83 1117.68 1086.61
  Q 1131.91 1099.45 1139.13 1106.13
  C 1149.66 1115.89 1155.47 1122.12 1167.16 1134.12
  C 1176.78 1144.00 1186.11 1154.98 1195.94 1166.16
  C 1204.69 1176.13 1210.60 1183.49 1219.09 1193.42
  C 1230.63 1206.91 1237.31 1215.92 1251.83 1234.20
  Q 1255.74 1239.11 1259.99 1244.00
  Q 1264.18 1248.81 1268.38 1253.63"
/>
<path stroke="#7f3401" vector-effect="non-scaling-stroke" d="
  M 1216.56 1298.19
  Q 1216.13 1297.10 1215.61 1296.64
  Q 1194.28 1277.53 1126.56 1217.44
  Q 1085.32 1180.85 1081.50 1177.51
  Q 1062.96 1161.30 1043.20 1143.34
  Q 1034.08 1135.05 1028.70 1130.38
  C 1016.13 1119.47 1004.31 1108.04 992.61 1097.54
  Q 972.34 1079.35 964.02 1071.83
  Q 954.04 1062.81 939.11 1052.08
  Q 932.63 1047.43 927.01 1043.00
  C 916.31 1034.58 907.01 1027.49 897.78 1019.66
  C 851.60 980.43 813.31 947.57 774.54 910.20
  Q 744.42 881.17 718.43 854.82
  C 705.01 841.21 689.58 823.42 675.26 807.52
  C 661.04 791.74 646.99 773.67 635.09 758.22
  Q 630.06 751.70 604.41 723.81
  Q 600.19 719.23 592.55 712.28
  C 582.11 702.78 571.07 691.98 559.82 682.77
  C 543.96 669.77 537.06 663.92 522.33 652.58
  Q 498.36 634.13 480.46 617.06
  Q 461.48 598.97 444.04 576.04
  Q 443.18 574.91 423.75 547.63
  C 410.74 529.39 399.14 512.15 384.82 492.81
  Q 371.53 474.84 365.18 467.40
  C 343.84 442.38 331.59 427.83 314.84 410.43
  Q 299.57 394.56 275.80 370.99
  Q 272.02 367.24 265.70 361.51
  Q 260.49 356.79 255.59 352.01"
/>
<path stroke="#7f3401" vector-effect="non-scaling-stroke" d="
  M 1429.95 754.84
  Q 1428.40 773.31 1429.81 791.71"
/>
<path stroke="#7f3401" vector-effect="non-scaling-stroke" d="
  M 1443.65 903.65
  L 1443.36 926.71"
/>
<path stroke="#7f3401" vector-effect="non-scaling-stroke" d="
  M 536.67 143.29
  Q 539.54 144.70 542.11 143.11"
/>
<path stroke="#7f3401" vector-effect="non-scaling-stroke" d="
  M 594.49 145.08
  Q 598.31 146.01 602.29 145.60"
/>
<path stroke="#7f3401" vector-effect="non-scaling-stroke" d="
  M 656.68 145.59
  L 663.66 145.14"
/>
<path stroke="#7f3401" vector-effect="non-scaling-stroke" d="
  M 1027.02 1450.83
  Q 1024.89 1448.94 1022.59 1446.66
  Q 1010.12 1434.30 997.46 1421.97
  Q 984.80 1409.63 974.40 1399.24
  Q 940.20 1365.07 904.50 1329.65
  C 888.67 1313.94 875.06 1299.81 861.03 1285.34
  Q 843.28 1267.04 834.86 1257.15
  Q 805.13 1222.26 803.86 1220.64
  C 796.63 1211.36 787.87 1201.78 779.39 1191.25
  Q 763.43 1171.44 753.05 1158.92
  Q 751.39 1156.91 748.57 1153.15
  C 744.95 1148.31 741.25 1144.62 737.14 1139.39
  C 732.66 1133.68 728.42 1129.13 722.63 1122.20
  Q 698.23 1092.97 696.61 1091.14
  Q 691.45 1085.27 657.30 1046.89
  Q 651.88 1040.80 644.92 1033.57
  Q 637.87 1026.24 632.38 1020.15
  Q 622.53 1009.22 615.07 1001.87
  Q 610.42 997.29 597.58 983.08
  Q 595.59 980.87 563.48 948.64
  Q 561.77 946.92 539.41 924.72
  C 514.01 899.51 495.71 882.12 469.56 857.69
  C 455.91 844.92 443.90 834.39 428.88 820.39
  Q 409.60 802.41 366.01 764.36
  Q 355.13 754.85 352.87 752.76
  Q 340.75 741.54 340.69 741.49
  Q 334.80 735.75 308.54 710.14
  Q 293.39 695.37 269.44 667.57
  C 254.46 650.17 232.75 626.85 216.04 607.95
  Q 193.68 582.66 182.05 570.49
  C 178.37 566.64 174.80 562.04 170.72 557.95
  C 163.26 550.48 157.40 543.36 149.38 534.63
  Q 148.47 533.64 146.99 531.61
  Q 145.69 529.82 144.63 528.62"
/>
<path stroke="#7f3401" vector-effect="non-scaling-stroke" d="
  M 961.98 1463.46
  L 974.70 1463.09
  A 0.24 0.23 62.6 0 0 974.83 1462.67
  Q 971.27 1459.88 967.85 1457.14
  Q 955.70 1447.37 943.66 1437.84
  Q 931.17 1427.96 919.57 1418.39
  C 895.49 1398.53 878.50 1384.79 859.39 1368.60
  Q 829.21 1343.03 826.46 1340.81
  C 820.01 1335.60 813.55 1329.42 807.64 1324.56
  Q 802.68 1320.49 793.60 1312.35
  Q 762.91 1284.86 735.79 1259.71
  C 717.92 1243.14 696.35 1223.78 678.28 1206.62
  Q 657.62 1186.98 651.80 1181.83
  C 643.17 1174.19 633.81 1164.92 623.40 1155.47
  Q 589.16 1124.39 553.17 1094.85
  C 542.59 1086.16 533.74 1077.25 524.09 1068.23
  Q 517.03 1061.62 508.74 1051.72
  Q 499.39 1040.54 480.00 1014.97
  C 476.18 1009.93 471.63 1003.84 466.73 998.03
  C 452.24 980.85 442.43 968.51 428.94 952.98
  Q 416.14 938.24 404.62 924.52
  Q 303.74 804.39 280.64 776.98
  Q 266.02 759.63 257.90 749.12
  Q 248.27 736.67 236.07 720.50
  C 233.04 716.47 229.28 712.12 226.93 708.89
  C 215.02 692.51 203.33 677.75 189.73 659.09
  Q 179.57 645.15 170.01 632.54
  Q 163.12 623.44 134.17 582.64
  Q 127.23 572.86 120.46 563.26"
/>
<path stroke="#7f3401" vector-effect="non-scaling-stroke" d="
  M 92.21 856.76
  Q 93.47 849.49 92.59 842.15"
/>
<path stroke="#7f3401" vector-effect="non-scaling-stroke" d="
  M 92.46 830.00
  Q 93.13 822.85 92.16 815.82"
/>
<path stroke="#7f3401" vector-effect="non-scaling-stroke" d="
  M 78.50 697.25
  L 78.48 687.23"
/>
</g>
<g fill="#000000">
<path d="
  M 1429.95 754.84
  Q 1428.40 773.31 1429.81 791.71
  C 1430.10 793.76 1429.91 796.18 1430.39 797.93
  C 1431.26 801.05 1430.85 804.55 1431.20 807.70
  Q 1432.65 820.63 1432.70 821.11
  Q 1433.51 828.57 1438.55 860.69
  Q 1441.92 882.18 1443.65 903.65
  L 1443.36 926.71
  Q 1442.61 947.00 1438.12 966.65
  Q 1434.90 980.77 1429.00 994.92
  Q 1423.19 1008.85 1415.86 1021.57
  Q 1414.27 1024.34 1413.86 1026.75
  L 1413.12 1026.59
  A 1.25 1.22 75.9 0 1 1412.41 1026.15
  C 1404.07 1015.64 1397.21 1005.69 1386.34 991.38
  Q 1378.76 981.41 1376.98 978.93
  C 1372.65 972.92 1369.54 969.30 1364.42 962.47
  Q 1332.68 920.16 1326.88 913.27
  Q 1326.87 913.25 1310.72 892.92
  Q 1284.40 859.79 1275.43 849.51
  Q 1263.48 835.81 1251.03 821.25
  C 1244.63 813.76 1237.90 806.74 1232.92 800.93
  Q 1205.61 769.07 1180.21 740.47
  C 1164.81 723.14 1151.69 707.34 1136.78 690.90
  C 1119.55 671.91 1103.53 652.92 1086.46 633.88
  C 1075.33 621.47 1064.75 608.32 1054.09 594.91
  C 1048.28 587.59 1035.57 572.10 1025.61 559.30
  Q 1002.76 529.96 973.54 507.49
  C 959.84 496.96 943.55 484.29 930.58 472.72
  Q 893.19 439.34 872.58 420.72
  C 839.29 390.66 809.72 364.85 778.91 337.65
  Q 774.91 334.12 737.11 301.75
  Q 732.96 298.21 727.99 294.29
  C 724.05 291.19 720.14 287.55 715.86 284.17
  C 706.81 276.99 701.39 272.23 691.36 264.61
  Q 688.68 262.58 682.55 257.27
  Q 681.57 256.41 673.50 249.95
  Q 667.68 245.28 634.86 219.64
  C 627.01 213.51 622.14 209.49 613.94 203.26
  Q 600.69 193.20 590.87 185.44
  C 577.49 174.88 563.81 165.44 549.66 154.59
  Q 549.17 154.22 547.76 153.37
  A 3.80 3.62 81.4 0 1 547.01 152.79
  Q 541.79 147.68 535.42 144.21
  L 536.67 143.29
  Q 539.54 144.70 542.11 143.11
  Q 562.83 142.52 583.65 144.17
  C 586.16 144.37 590.80 145.10 594.49 145.08
  Q 598.31 146.01 602.29 145.60
  Q 605.83 146.02 609.50 146.02
  Q 628.75 146.00 648.00 146.02
  Q 651.12 146.02 656.68 145.59
  L 663.66 145.14
  Q 702.11 141.25 739.33 130.33
  Q 771.82 120.81 800.15 114.95
  Q 810.28 112.85 823.52 112.21
  Q 832.61 111.76 848.74 112.11
  C 888.41 112.95 923.02 132.26 957.99 150.83
  C 963.93 153.98 972.93 157.74 977.39 159.83
  Q 996.03 168.59 1016.44 172.58
  Q 1022.82 173.82 1040.52 175.60
  C 1059.12 177.47 1076.07 182.48 1090.74 193.36
  Q 1101.91 201.65 1108.44 209.06
  Q 1113.88 215.23 1124.12 228.14
  Q 1131.43 237.36 1142.99 247.02
  Q 1159.75 261.02 1177.62 267.48
  Q 1195.18 273.82 1209.36 278.72
  Q 1215.15 280.73 1222.47 284.75
  Q 1268.23 309.93 1295.11 354.66
  C 1306.39 373.45 1313.85 393.86 1321.82 414.28
  C 1324.35 420.78 1327.86 428.19 1330.83 434.48
  C 1336.31 446.11 1344.82 456.88 1354.23 465.76
  Q 1364.23 475.20 1372.22 482.53
  C 1379.34 489.06 1385.63 496.95 1390.14 505.48
  Q 1392.91 510.71 1397.40 524.51
  C 1404.26 545.57 1408.52 559.76 1416.68 575.34
  Q 1423.48 588.31 1432.76 607.76
  Q 1437.25 617.17 1440.11 626.69
  Q 1442.75 635.50 1443.11 645.60
  Q 1443.70 662.58 1441.01 679.00
  Q 1440.99 679.12 1433.88 720.05
  Q 1432.72 726.73 1431.92 733.77
  Q 1430.72 744.31 1429.95 754.84
  Z"
/>
<path d="
  M 1388.97 1064.67
  Q 1386.51 1066.56 1385.28 1068.28
  Q 1381.73 1073.29 1373.13 1086.87
  C 1358.89 1109.31 1351.69 1133.87 1345.04 1160.19
  Q 1341.61 1173.75 1338.66 1181.05
  Q 1329.01 1204.87 1309.18 1222.18
  Q 1299.50 1230.63 1284.24 1242.48
  Q 1276.15 1248.77 1268.38 1253.63
  Q 1264.18 1248.81 1259.99 1244.00
  Q 1255.74 1239.11 1251.83 1234.20
  C 1237.31 1215.92 1230.63 1206.91 1219.09 1193.42
  C 1210.60 1183.49 1204.69 1176.13 1195.94 1166.16
  C 1186.11 1154.98 1176.78 1144.00 1167.16 1134.12
  C 1155.47 1122.12 1149.66 1115.89 1139.13 1106.13
  Q 1131.91 1099.45 1117.68 1086.61
  Q 1110.16 1079.83 1106.10 1075.68
  C 1101.49 1070.96 1096.34 1066.64 1091.87 1062.13
  Q 1075.16 1045.28 1072.93 1042.98
  C 1068.59 1038.51 1063.07 1033.61 1058.52 1028.49
  Q 1055.08 1024.61 1052.35 1021.76
  C 1021.61 989.59 1001.20 968.66 977.87 942.97
  Q 970.38 934.73 955.74 918.87
  Q 939.86 901.67 909.91 866.05
  Q 903.03 857.87 895.68 847.49
  Q 893.64 844.61 885.92 834.92
  Q 883.54 831.93 876.42 822.12
  Q 849.70 785.34 823.69 753.81
  Q 805.87 732.22 798.04 724.45
  Q 787.17 713.67 776.64 705.61
  C 769.61 700.23 760.08 694.44 754.12 690.47
  Q 752.76 689.57 740.07 681.16
  Q 725.46 671.49 710.72 658.28
  Q 676.47 627.60 648.60 594.93
  Q 642.27 587.52 624.53 565.51
  Q 621.71 562.02 615.78 555.27
  Q 613.67 552.87 606.55 544.64
  Q 593.83 529.91 577.80 514.20
  Q 572.06 508.57 566.93 504.78
  C 562.30 501.36 556.83 496.67 551.46 493.06
  Q 533.15 480.76 522.57 474.70
  Q 518.41 472.32 496.19 459.80
  Q 488.52 455.48 463.52 438.46
  Q 454.42 432.27 437.97 419.53
  Q 426.00 410.27 413.13 399.22
  Q 377.23 368.42 371.76 363.25
  Q 354.41 346.85 340.50 334.07
  Q 334.03 328.12 325.22 319.69
  Q 317.44 312.26 309.94 305.31
  Q 324.70 291.47 336.64 275.09
  C 342.87 266.55 348.37 256.60 353.77 248.77
  Q 362.18 236.58 373.36 228.48
  C 382.03 222.21 393.33 217.43 403.54 212.05
  Q 426.16 200.13 432.15 195.91
  C 437.78 191.95 447.03 185.47 457.72 177.76
  Q 470.84 168.30 485.14 160.66
  Q 485.75 160.33 486.07 159.37
  Q 490.11 162.27 493.71 165.72
  Q 498.61 170.41 498.89 170.66
  C 518.30 188.35 529.28 197.68 544.35 212.27
  Q 548.79 216.57 560.92 227.43
  Q 568.60 234.29 581.09 246.10
  Q 591.06 255.52 601.23 264.79
  Q 605.58 268.75 632.13 292.70
  Q 648.13 307.14 683.91 343.17
  Q 695.50 354.84 709.14 370.60
  Q 726.04 390.13 733.76 398.97
  Q 744.77 411.58 760.52 430.24
  Q 775.51 447.99 787.42 461.45
  Q 793.85 468.71 828.88 509.04
  C 835.37 516.50 842.01 523.40 848.43 531.06
  Q 851.12 534.28 856.14 539.68
  Q 875.37 560.37 888.31 574.68
  Q 897.53 584.85 903.14 590.65
  C 909.72 597.45 915.86 604.36 923.05 611.65
  Q 944.06 632.97 953.85 643.19
  Q 962.49 652.21 969.75 659.06
  C 976.31 665.26 983.83 673.32 991.35 680.35
  Q 1010.86 698.59 1014.75 702.41
  C 1026.88 714.32 1036.48 722.21 1049.52 734.35
  C 1060.81 744.85 1069.33 751.92 1083.65 764.83
  C 1094.12 774.27 1106.93 785.02 1121.61 797.77
  Q 1125.64 801.26 1136.91 810.82
  Q 1169.22 838.24 1177.48 845.86
  Q 1191.02 858.35 1198.40 865.00
  C 1211.12 876.46 1221.05 886.63 1233.75 898.45
  Q 1239.40 903.70 1248.01 912.79
  C 1259.81 925.22 1271.54 937.06 1283.01 949.67
  C 1292.88 960.52 1300.76 968.30 1309.40 978.21
  Q 1316.77 986.65 1327.85 998.13
  C 1338.55 1009.21 1347.60 1019.84 1358.34 1031.21
  Q 1375.89 1049.77 1387.99 1063.26
  A 0.78 0.75 27.0 0 1 1388.18 1063.81
  Q 1388.09 1064.95 1388.97 1064.67
  Z"
/>
<path d="
  M 1216.56 1298.19
  Q 1215.42 1297.94 1214.97 1298.41
  Q 1211.76 1301.75 1204.50 1308.99
  Q 1198.06 1315.44 1189.54 1326.27
  C 1184.72 1332.40 1180.28 1339.99 1176.12 1346.63
  Q 1170.60 1355.43 1163.42 1364.42
  Q 1156.21 1373.44 1141.37 1382.62
  C 1133.48 1387.50 1120.68 1392.59 1112.11 1397.46
  Q 1089.05 1410.57 1072.94 1422.48
  Q 1056.49 1434.63 1042.68 1442.95
  C 1038.05 1445.74 1032.32 1448.28 1027.02 1450.83
  Q 1024.89 1448.94 1022.59 1446.66
  Q 1010.12 1434.30 997.46 1421.97
  Q 984.80 1409.63 974.40 1399.24
  Q 940.20 1365.07 904.50 1329.65
  C 888.67 1313.94 875.06 1299.81 861.03 1285.34
  Q 843.28 1267.04 834.86 1257.15
  Q 805.13 1222.26 803.86 1220.64
  C 796.63 1211.36 787.87 1201.78 779.39 1191.25
  Q 763.43 1171.44 753.05 1158.92
  Q 751.39 1156.91 748.57 1153.15
  C 744.95 1148.31 741.25 1144.62 737.14 1139.39
  C 732.66 1133.68 728.42 1129.13 722.63 1122.20
  Q 698.23 1092.97 696.61 1091.14
  Q 691.45 1085.27 657.30 1046.89
  Q 651.88 1040.80 644.92 1033.57
  Q 637.87 1026.24 632.38 1020.15
  Q 622.53 1009.22 615.07 1001.87
  Q 610.42 997.29 597.58 983.08
  Q 595.59 980.87 563.48 948.64
  Q 561.77 946.92 539.41 924.72
  C 514.01 899.51 495.71 882.12 469.56 857.69
  C 455.91 844.92 443.90 834.39 428.88 820.39
  Q 409.60 802.41 366.01 764.36
  Q 355.13 754.85 352.87 752.76
  Q 340.75 741.54 340.69 741.49
  Q 334.80 735.75 308.54 710.14
  Q 293.39 695.37 269.44 667.57
  C 254.46 650.17 232.75 626.85 216.04 607.95
  Q 193.68 582.66 182.05 570.49
  C 178.37 566.64 174.80 562.04 170.72 557.95
  C 163.26 550.48 157.40 543.36 149.38 534.63
  Q 148.47 533.64 146.99 531.61
  Q 145.69 529.82 144.63 528.62
  Q 155.90 510.63 162.40 496.14
  Q 170.75 477.54 174.55 460.60
  Q 178.18 444.40 178.92 441.38
  Q 181.31 431.54 188.06 417.05
  Q 195.66 400.76 210.31 387.06
  Q 225.46 372.91 245.50 358.99
  Q 250.10 355.79 255.59 352.01
  Q 260.49 356.79 265.70 361.51
  Q 272.02 367.24 275.80 370.99
  Q 299.57 394.56 314.84 410.43
  C 331.59 427.83 343.84 442.38 365.18 467.40
  Q 371.53 474.84 384.82 492.81
  C 399.14 512.15 410.74 529.39 423.75 547.63
  Q 443.18 574.91 444.04 576.04
  Q 461.48 598.97 480.46 617.06
  Q 498.36 634.13 522.33 652.58
  C 537.06 663.92 543.96 669.77 559.82 682.77
  C 571.07 691.98 582.11 702.78 592.55 712.28
  Q 600.19 719.23 604.41 723.81
  Q 630.06 751.70 635.09 758.22
  C 646.99 773.67 661.04 791.74 675.26 807.52
  C 689.58 823.42 705.01 841.21 718.43 854.82
  Q 744.42 881.17 774.54 910.20
  C 813.31 947.57 851.60 980.43 897.78 1019.66
  C 907.01 1027.49 916.31 1034.58 927.01 1043.00
  Q 932.63 1047.43 939.11 1052.08
  Q 954.04 1062.81 964.02 1071.83
  Q 972.34 1079.35 992.61 1097.54
  C 1004.31 1108.04 1016.13 1119.47 1028.70 1130.38
  Q 1034.08 1135.05 1043.20 1143.34
  Q 1062.96 1161.30 1081.50 1177.51
  Q 1085.32 1180.85 1126.56 1217.44
  Q 1194.28 1277.53 1215.61 1296.64
  Q 1216.13 1297.10 1216.56 1298.19
  Z"
/>
<path d="
  M 961.98 1463.46
  Q 952.64 1463.07 943.25 1462.47
  Q 932.12 1461.76 921.91 1460.91
  Q 909.69 1459.89 900.55 1459.93
  Q 881.28 1460.01 874.35 1460.02
  C 872.07 1460.03 869.44 1460.73 867.31 1460.82
  Q 838.29 1461.99 806.93 1469.40
  Q 792.36 1472.84 779.44 1476.45
  Q 759.74 1481.96 752.04 1483.81
  Q 730.44 1489.00 712.52 1492.03
  Q 704.14 1493.45 692.76 1493.93
  Q 687.73 1494.14 683.26 1494.58
  Q 678.23 1495.06 672.63 1494.14
  A 8.38 8.28 -40.6 0 0 671.22 1494.04
  Q 665.32 1494.14 658.86 1493.34
  Q 632.60 1490.12 609.42 1478.76
  Q 601.89 1475.07 590.05 1468.75
  Q 573.27 1459.80 570.79 1458.50
  Q 550.62 1447.88 536.91 1442.63
  Q 525.08 1438.10 515.98 1436.05
  Q 512.33 1435.23 503.63 1433.66
  Q 497.07 1432.49 491.20 1431.92
  Q 478.31 1430.67 470.27 1429.40
  Q 456.65 1427.25 444.28 1421.13
  C 431.88 1414.99 422.21 1406.01 413.20 1395.33
  Q 399.27 1378.83 393.15 1371.94
  Q 372.32 1348.49 343.60 1338.20
  Q 335.98 1335.47 316.36 1328.67
  Q 301.96 1323.67 289.95 1315.55
  C 276.04 1306.13 262.68 1296.17 251.43 1283.71
  Q 237.83 1268.65 228.19 1252.80
  Q 225.92 1249.06 217.08 1231.45
  Q 212.19 1221.70 207.50 1209.38
  Q 203.02 1197.62 196.68 1181.88
  C 195.30 1178.45 193.59 1175.01 191.94 1171.21
  Q 191.13 1169.36 189.74 1167.12
  Q 181.11 1153.13 169.10 1141.64
  Q 167.52 1140.13 153.50 1127.00
  Q 143.10 1117.26 135.50 1106.25
  C 131.66 1100.68 129.26 1095.47 127.03 1088.49
  Q 126.21 1085.93 123.63 1077.22
  Q 122.39 1073.02 119.92 1066.07
  Q 115.97 1054.91 113.35 1048.14
  Q 110.82 1041.60 101.59 1023.18
  Q 100.59 1021.18 95.96 1011.34
  Q 94.49 1008.23 90.23 999.54
  Q 81.99 982.71 79.19 963.02
  Q 78.45 957.82 79.28 945.01
  Q 80.19 930.82 84.80 908.14
  C 86.65 899.03 88.07 890.13 89.39 881.92
  Q 90.47 875.24 91.15 865.81
  Q 91.24 864.57 91.79 861.30
  Q 92.17 859.07 92.21 856.76
  Q 93.47 849.49 92.59 842.15
  L 92.46 830.00
  Q 93.13 822.85 92.16 815.82
  Q 92.14 811.99 91.30 808.33
  A 9.41 9.27 38.9 0 1 91.08 806.41
  Q 91.01 800.89 90.71 798.99
  C 89.96 794.26 89.88 790.33 89.16 785.45
  Q 85.99 763.67 82.89 742.24
  Q 79.12 716.26 78.98 708.25
  Q 78.82 699.61 78.50 697.25
  L 78.48 687.23
  C 78.58 685.98 78.96 684.68 78.97 683.48
  Q 79.00 676.19 79.11 672.13
  Q 79.12 671.71 79.48 670.94
  A 2.54 2.49 60.0 0 0 79.72 670.01
  Q 81.57 643.25 90.39 619.37
  Q 100.87 590.96 118.73 565.93
  A 1.67 0.13 -66.0 0 0 119.21 565.04
  Q 119.58 564.28 120.46 563.26
  Q 127.23 572.86 134.17 582.64
  Q 163.12 623.44 170.01 632.54
  Q 179.57 645.15 189.73 659.09
  C 203.33 677.75 215.02 692.51 226.93 708.89
  C 229.28 712.12 233.04 716.47 236.07 720.50
  Q 248.27 736.67 257.90 749.12
  Q 266.02 759.63 280.64 776.98
  Q 303.74 804.39 404.62 924.52
  Q 416.14 938.24 428.94 952.98
  C 442.43 968.51 452.24 980.85 466.73 998.03
  C 471.63 1003.84 476.18 1009.93 480.00 1014.97
  Q 499.39 1040.54 508.74 1051.72
  Q 517.03 1061.62 524.09 1068.23
  C 533.74 1077.25 542.59 1086.16 553.17 1094.85
  Q 589.16 1124.39 623.40 1155.47
  C 633.81 1164.92 643.17 1174.19 651.80 1181.83
  Q 657.62 1186.98 678.28 1206.62
  C 696.35 1223.78 717.92 1243.14 735.79 1259.71
  Q 762.91 1284.86 793.60 1312.35
  Q 802.68 1320.49 807.64 1324.56
  C 813.55 1329.42 820.01 1335.60 826.46 1340.81
  Q 829.21 1343.03 859.39 1368.60
  C 878.50 1384.79 895.49 1398.53 919.57 1418.39
  Q 931.17 1427.96 943.66 1437.84
  Q 955.70 1447.37 967.85 1457.14
  Q 971.27 1459.88 974.83 1462.67
  A 0.24 0.23 62.6 0 1 974.70 1463.09
  L 961.98 1463.46
  Z"
/>
</g>
<g fill="#fd6702">
<path d="
  M 535.42 144.21
  Q 541.79 147.68 547.01 152.79
  A 3.80 3.62 81.4 0 0 547.76 153.37
  Q 549.17 154.22 549.66 154.59
  C 563.81 165.44 577.49 174.88 590.87 185.44
  Q 600.69 193.20 613.94 203.26
  C 622.14 209.49 627.01 213.51 634.86 219.64
  Q 667.68 245.28 673.50 249.95
  Q 681.57 256.41 682.55 257.27
  Q 688.68 262.58 691.36 264.61
  C 701.39 272.23 706.81 276.99 715.86 284.17
  C 720.14 287.55 724.05 291.19 727.99 294.29
  Q 732.96 298.21 737.11 301.75
  Q 774.91 334.12 778.91 337.65
  C 809.72 364.85 839.29 390.66 872.58 420.72
  Q 893.19 439.34 930.58 472.72
  C 943.55 484.29 959.84 496.96 973.54 507.49
  Q 1002.76 529.96 1025.61 559.30
  C 1035.57 572.10 1048.28 587.59 1054.09 594.91
  C 1064.75 608.32 1075.33 621.47 1086.46 633.88
  C 1103.53 652.92 1119.55 671.91 1136.78 690.90
  C 1151.69 707.34 1164.81 723.14 1180.21 740.47
  Q 1205.61 769.07 1232.92 800.93
  C 1237.90 806.74 1244.63 813.76 1251.03 821.25
  Q 1263.48 835.81 1275.43 849.51
  Q 1284.40 859.79 1310.72 892.92
  Q 1326.87 913.25 1326.88 913.27
  Q 1332.68 920.16 1364.42 962.47
  C 1369.54 969.30 1372.65 972.92 1376.98 978.93
  Q 1378.76 981.41 1386.34 991.38
  C 1397.21 1005.69 1404.07 1015.64 1412.41 1026.15
  A 1.25 1.22 75.9 0 0 1413.12 1026.59
  L 1413.86 1026.75
  Q 1414.09 1027.52 1414.45 1028.10
  Q 1419.51 1036.21 1424.96 1043.63
  Q 1435.67 1058.20 1444.77 1071.31
  Q 1483.14 1126.51 1494.05 1143.75
  C 1516.17 1178.73 1530.37 1200.74 1544.00 1224.74
  L 1544.00 1225.75
  Q 1532.59 1216.30 1522.55 1205.70
  Q 1501.09 1183.07 1482.09 1163.49
  Q 1471.54 1152.63 1466.61 1147.30
  C 1452.13 1131.66 1444.63 1123.42 1428.32 1106.61
  Q 1412.52 1090.32 1396.04 1071.72
  Q 1393.83 1069.23 1388.97 1064.67
  Q 1388.09 1064.95 1388.18 1063.81
  A 0.78 0.75 27.0 0 0 1387.99 1063.26
  Q 1375.89 1049.77 1358.34 1031.21
  C 1347.60 1019.84 1338.55 1009.21 1327.85 998.13
  Q 1316.77 986.65 1309.40 978.21
  C 1300.76 968.30 1292.88 960.52 1283.01 949.67
  C 1271.54 937.06 1259.81 925.22 1248.01 912.79
  Q 1239.40 903.70 1233.75 898.45
  C 1221.05 886.63 1211.12 876.46 1198.40 865.00
  Q 1191.02 858.35 1177.48 845.86
  Q 1169.22 838.24 1136.91 810.82
  Q 1125.64 801.26 1121.61 797.77
  C 1106.93 785.02 1094.12 774.27 1083.65 764.83
  C 1069.33 751.92 1060.81 744.85 1049.52 734.35
  C 1036.48 722.21 1026.88 714.32 1014.75 702.41
  Q 1010.86 698.59 991.35 680.35
  C 983.83 673.32 976.31 665.26 969.75 659.06
  Q 962.49 652.21 953.85 643.19
  Q 944.06 632.97 923.05 611.65
  C 915.86 604.36 909.72 597.45 903.14 590.65
  Q 897.53 584.85 888.31 574.68
  Q 875.37 560.37 856.14 539.68
  Q 851.12 534.28 848.43 531.06
  C 842.01 523.40 835.37 516.50 828.88 509.04
  Q 793.85 468.71 787.42 461.45
  Q 775.51 447.99 760.52 430.24
  Q 744.77 411.58 733.76 398.97
  Q 726.04 390.13 709.14 370.60
  Q 695.50 354.84 683.91 343.17
  Q 648.13 307.14 632.13 292.70
  Q 605.58 268.75 601.23 264.79
  Q 591.06 255.52 581.09 246.10
  Q 568.60 234.29 560.92 227.43
  Q 548.79 216.57 544.35 212.27
  C 529.28 197.68 518.30 188.35 498.89 170.66
  Q 498.61 170.41 493.71 165.72
  Q 490.11 162.27 486.07 159.37
  Q 467.68 142.02 448.95 124.97
  Q 431.77 109.32 423.52 101.54
  C 412.68 91.29 400.96 81.03 389.99 70.63
  Q 371.99 53.56 340.00 24.16
  C 332.14 16.93 325.57 9.56 318.16 3.56
  Q 317.43 2.97 316.15 0.93
  A 0.26 0.26 0.0 0 1 316.53 0.59
  Q 318.17 1.82 319.02 2.26
  Q 341.66 14.15 359.55 25.45
  Q 372.66 33.73 397.67 49.02
  Q 417.14 60.92 427.91 68.58
  C 440.08 77.23 464.02 92.93 480.36 104.82
  Q 491.55 112.96 503.02 120.64
  Q 508.27 124.16 519.18 132.39
  Q 527.25 138.48 535.42 144.21
  Z"
/>
<path d="
  M 309.94 305.31
  Q 317.44 312.26 325.22 319.69
  Q 334.03 328.12 340.50 334.07
  Q 354.41 346.85 371.76 363.25
  Q 377.23 368.42 413.13 399.22
  Q 426.00 410.27 437.97 419.53
  Q 454.42 432.27 463.52 438.46
  Q 488.52 455.48 496.19 459.80
  Q 518.41 472.32 522.57 474.70
  Q 533.15 480.76 551.46 493.06
  C 556.83 496.67 562.30 501.36 566.93 504.78
  Q 572.06 508.57 577.80 514.20
  Q 593.83 529.91 606.55 544.64
  Q 613.67 552.87 615.78 555.27
  Q 621.71 562.02 624.53 565.51
  Q 642.27 587.52 648.60 594.93
  Q 676.47 627.60 710.72 658.28
  Q 725.46 671.49 740.07 681.16
  Q 752.76 689.57 754.12 690.47
  C 760.08 694.44 769.61 700.23 776.64 705.61
  Q 787.17 713.67 798.04 724.45
  Q 805.87 732.22 823.69 753.81
  Q 849.70 785.34 876.42 822.12
  Q 883.54 831.93 885.92 834.92
  Q 893.64 844.61 895.68 847.49
  Q 903.03 857.87 909.91 866.05
  Q 939.86 901.67 955.74 918.87
  Q 970.38 934.73 977.87 942.97
  C 1001.20 968.66 1021.61 989.59 1052.35 1021.76
  Q 1055.08 1024.61 1058.52 1028.49
  C 1063.07 1033.61 1068.59 1038.51 1072.93 1042.98
  Q 1075.16 1045.28 1091.87 1062.13
  C 1096.34 1066.64 1101.49 1070.96 1106.10 1075.68
  Q 1110.16 1079.83 1117.68 1086.61
  Q 1131.91 1099.45 1139.13 1106.13
  C 1149.66 1115.89 1155.47 1122.12 1167.16 1134.12
  C 1176.78 1144.00 1186.11 1154.98 1195.94 1166.16
  C 1204.69 1176.13 1210.60 1183.49 1219.09 1193.42
  C 1230.63 1206.91 1237.31 1215.92 1251.83 1234.20
  Q 1255.74 1239.11 1259.99 1244.00
  Q 1264.18 1248.81 1268.38 1253.63
  Q 1270.01 1256.16 1272.88 1259.62
  Q 1294.59 1285.79 1306.01 1299.17
  C 1319.24 1314.66 1328.15 1326.70 1342.08 1343.47
  Q 1355.34 1359.43 1369.10 1376.78
  Q 1391.31 1404.79 1396.93 1411.83
  C 1420.43 1441.28 1434.09 1459.08 1455.63 1486.17
  Q 1458.44 1489.72 1468.51 1504.33
  A 0.34 0.33 -16.9 0 1 1468.23 1504.85
  Q 1467.34 1504.85 1466.37 1504.25
  Q 1462.10 1501.65 1455.77 1496.87
  C 1437.54 1483.10 1421.41 1469.70 1402.72 1454.80
  Q 1355.90 1417.46 1312.21 1379.90
  C 1293.21 1363.57 1277.83 1350.93 1259.17 1334.46
  Q 1241.13 1318.53 1220.50 1301.26
  Q 1218.57 1299.64 1216.56 1298.19
  Q 1216.13 1297.10 1215.61 1296.64
  Q 1194.28 1277.53 1126.56 1217.44
  Q 1085.32 1180.85 1081.50 1177.51
  Q 1062.96 1161.30 1043.20 1143.34
  Q 1034.08 1135.05 1028.70 1130.38
  C 1016.13 1119.47 1004.31 1108.04 992.61 1097.54
  Q 972.34 1079.35 964.02 1071.83
  Q 954.04 1062.81 939.11 1052.08
  Q 932.63 1047.43 927.01 1043.00
  C 916.31 1034.58 907.01 1027.49 897.78 1019.66
  C 851.60 980.43 813.31 947.57 774.54 910.20
  Q 744.42 881.17 718.43 854.82
  C 705.01 841.21 689.58 823.42 675.26 807.52
  C 661.04 791.74 646.99 773.67 635.09 758.22
  Q 630.06 751.70 604.41 723.81
  Q 600.19 719.23 592.55 712.28
  C 582.11 702.78 571.07 691.98 559.82 682.77
  C 543.96 669.77 537.06 663.92 522.33 652.58
  Q 498.36 634.13 480.46 617.06
  Q 461.48 598.97 444.04 576.04
  Q 443.18 574.91 423.75 547.63
  C 410.74 529.39 399.14 512.15 384.82 492.81
  Q 371.53 474.84 365.18 467.40
  C 343.84 442.38 331.59 427.83 314.84 410.43
  Q 299.57 394.56 275.80 370.99
  Q 272.02 367.24 265.70 361.51
  Q 260.49 356.79 255.59 352.01
  Q 240.04 337.38 226.02 321.48
  Q 214.74 308.69 210.69 304.29
  Q 203.80 296.82 195.79 286.94
  C 185.93 274.77 171.29 258.30 162.99 247.51
  Q 112.23 181.52 102.82 169.18
  C 97.01 161.56 91.26 153.27 84.36 144.41
  Q 81.91 141.26 72.21 128.53
  C 65.57 119.81 59.38 110.30 52.63 100.86
  C 51.75 99.64 51.03 98.02 50.21 96.62
  A 0.27 0.27 0.0 0 1 50.60 96.27
  C 62.10 104.44 72.17 111.21 83.47 119.76
  Q 119.97 147.39 121.25 148.32
  Q 133.30 157.09 150.01 171.13
  Q 164.85 183.60 185.05 199.27
  C 195.90 207.69 206.31 216.54 217.25 225.88
  C 229.37 236.23 248.21 250.54 259.28 260.28
  Q 270.45 270.10 297.42 294.08
  Q 303.27 299.29 309.94 305.31
  Z"
/>
<path d="
  M 542.11 143.11
  Q 539.54 144.70 536.67 143.29
  L 542.11 143.11
  Z"
/>
<path d="
  M 602.29 145.60
  Q 598.31 146.01 594.49 145.08
  L 602.29 145.60
  Z"
/>
<path d="
  M 663.66 145.14
  L 656.68 145.59
  L 663.66 145.14
  Z"
/>
<path d="
  M 144.63 528.62
  Q 145.69 529.82 146.99 531.61
  Q 148.47 533.64 149.38 534.63
  C 157.40 543.36 163.26 550.48 170.72 557.95
  C 174.80 562.04 178.37 566.64 182.05 570.49
  Q 193.68 582.66 216.04 607.95
  C 232.75 626.85 254.46 650.17 269.44 667.57
  Q 293.39 695.37 308.54 710.14
  Q 334.80 735.75 340.69 741.49
  Q 340.75 741.54 352.87 752.76
  Q 355.13 754.85 366.01 764.36
  Q 409.60 802.41 428.88 820.39
  C 443.90 834.39 455.91 844.92 469.56 857.69
  C 495.71 882.12 514.01 899.51 539.41 924.72
  Q 561.77 946.92 563.48 948.64
  Q 595.59 980.87 597.58 983.08
  Q 610.42 997.29 615.07 1001.87
  Q 622.53 1009.22 632.38 1020.15
  Q 637.87 1026.24 644.92 1033.57
  Q 651.88 1040.80 657.30 1046.89
  Q 691.45 1085.27 696.61 1091.14
  Q 698.23 1092.97 722.63 1122.20
  C 728.42 1129.13 732.66 1133.68 737.14 1139.39
  C 741.25 1144.62 744.95 1148.31 748.57 1153.15
  Q 751.39 1156.91 753.05 1158.92
  Q 763.43 1171.44 779.39 1191.25
  C 787.87 1201.78 796.63 1211.36 803.86 1220.64
  Q 805.13 1222.26 834.86 1257.15
  Q 843.28 1267.04 861.03 1285.34
  C 875.06 1299.81 888.67 1313.94 904.50 1329.65
  Q 940.20 1365.07 974.40 1399.24
  Q 984.80 1409.63 997.46 1421.97
  Q 1010.12 1434.30 1022.59 1446.66
  Q 1024.89 1448.94 1027.02 1450.83
  Q 1035.00 1458.18 1042.43 1465.85
  Q 1053.51 1477.31 1057.95 1481.57
  Q 1079.00 1501.75 1079.59 1502.34
  C 1080.43 1503.18 1080.89 1503.92 1081.48 1504.49
  Q 1127.02 1548.41 1173.02 1594.86
  Q 1177.22 1599.11 1184.38 1606.12
  Q 1188.07 1609.74 1191.71 1615.00
  Q 1191.55 1614.99 1191.38 1615.00
  Q 1182.12 1610.29 1167.32 1600.94
  Q 1136.43 1581.44 1125.57 1574.20
  Q 1109.15 1563.27 1093.36 1551.81
  C 1073.37 1537.31 1052.67 1522.97 1031.83 1506.78
  Q 1018.18 1496.17 1002.29 1484.66
  C 994.62 1479.11 987.16 1472.86 977.81 1465.27
  A 5.40 5.36 -23.9 0 0 974.64 1464.06
  L 961.98 1463.46
  L 974.70 1463.09
  A 0.24 0.23 62.6 0 0 974.83 1462.67
  Q 971.27 1459.88 967.85 1457.14
  Q 955.70 1447.37 943.66 1437.84
  Q 931.17 1427.96 919.57 1418.39
  C 895.49 1398.53 878.50 1384.79 859.39 1368.60
  Q 829.21 1343.03 826.46 1340.81
  C 820.01 1335.60 813.55 1329.42 807.64 1324.56
  Q 802.68 1320.49 793.60 1312.35
  Q 762.91 1284.86 735.79 1259.71
  C 717.92 1243.14 696.35 1223.78 678.28 1206.62
  Q 657.62 1186.98 651.80 1181.83
  C 643.17 1174.19 633.81 1164.92 623.40 1155.47
  Q 589.16 1124.39 553.17 1094.85
  C 542.59 1086.16 533.74 1077.25 524.09 1068.23
  Q 517.03 1061.62 508.74 1051.72
  Q 499.39 1040.54 480.00 1014.97
  C 476.18 1009.93 471.63 1003.84 466.73 998.03
  C 452.24 980.85 442.43 968.51 428.94 952.98
  Q 416.14 938.24 404.62 924.52
  Q 303.74 804.39 280.64 776.98
  Q 266.02 759.63 257.90 749.12
  Q 248.27 736.67 236.07 720.50
  C 233.04 716.47 229.28 712.12 226.93 708.89
  C 215.02 692.51 203.33 677.75 189.73 659.09
  Q 179.57 645.15 170.01 632.54
  Q 163.12 623.44 134.17 582.64
  Q 127.23 572.86 120.46 563.26
  Q 118.97 562.16 116.78 558.98
  Q 104.27 540.76 91.56 522.50
  C 87.27 516.34 82.74 508.51 78.96 503.04
  C 69.24 488.95 61.11 475.99 52.76 463.60
  Q 49.95 459.44 48.39 456.87
  Q 28.74 424.50 9.52 391.91
  C 6.10 386.11 4.05 381.67 0.47 374.57
  A 0.21 0.21 0.0 0 1 0.81 374.33
  C 11.84 385.38 23.50 398.17 32.98 408.70
  Q 36.85 412.99 50.51 427.08
  Q 70.77 447.96 92.01 471.96
  Q 96.99 477.59 112.37 493.65
  Q 115.93 497.36 128.26 511.14
  Q 136.12 519.94 144.63 528.62
  Z"
/>
<path d="
  M 78.50 697.25
  Q 77.51 692.30 78.48 687.23
  L 78.50 697.25
  Z"
/>
<path d="
  M 1429.95 754.84
  L 1429.81 791.71
  Q 1428.40 773.31 1429.95 754.84
  Z"
/>
<path d="
  M 92.46 830.00
  L 92.16 815.82
  Q 93.13 822.85 92.46 830.00
  Z"
/>
<path d="
  M 92.59 842.15
  Q 93.47 849.49 92.21 856.76
  Q 91.54 849.37 92.59 842.15
  Z"
/>
<path d="
  M 1443.65 903.65
  Q 1444.64 915.29 1443.36 926.71
  L 1443.65 903.65
  Z"
/>
</g>
</svg>
