<svg viewBox="0 0 477 521" xmlns="http://www.w3.org/2000/svg"><style>@keyframes colorCycle{0%,to{fill:#a50}50%{fill:#f95}}</style><g style="display:inline" fill="#444"><path d="M234.48 0q-4.68 1.5-8.5 4.43-.12.1-7.12 6.48C107.268 112.786 102.446 121.215 7.59 207.83q-5.86 5.3-7.59 11.48v6.3q1.24 5.78 5.82 9.57c3.81 3.15 7.52 2.83 12.1 2.83 11.227.008 22.688.74 33.75.43a.99.99 0 0 1 1.34.93c1.151 61.18.143 122.202-.04 183.37-.06 15.176 7.216 20.266 7.596 19.78 54.507 19.425 289.202 5.325 334.184 6.27q1.67.04 11.65-1.07a7.4 7.4 0 0 0 1.81-.43c12.36-4.62 15.8-15.22 15.79-27.54q-.06-46.7 0-181.14a.53.53 0 0 1 .53-.53q16.54-.09 34 .14c3.605.063 6.912-.218 10.15-1.83 6.943-3.935 8.655-12.187 6.81-19.48-.7-2.35-3.12-6.1-4.64-7.52-33.203-29.963-46.055-45.623-68.09-63.66-1.438-32.839-.245-65.7-.88-98.54q-.1-5.17-1.19-7.22c-1.898-3.249-5.239-4.438-8.71-5.26-4.951-.577-18.216-.71-21.64-.6-4.638.119-10.694-.15-16.092-.14s-10.14.3-12.148 1.54c-4.51 3.086-6.1 5.46-6.1 10.24.564 36.324.762 9.898-.12 37.23-29.757-24.496-57.489-52.931-85.83-79.28Q247.02.86 241.98 0z"/><path d="M234.48 0q-4.68 1.5-8.5 4.43-.12.1-7.12 6.48C107.268 112.786 102.446 121.215 7.59 207.83q-5.86 5.3-7.59 11.48v6.3q1.24 5.78 5.82 9.57c3.81 3.15 7.52 2.83 12.1 2.83 11.227.008 22.688.74 33.75.43a.99.99 0 0 1 1.34.93c1.151 61.18.143 122.202-.04 183.37-.06 15.176 7.216 20.266 7.596 19.78 54.507 19.425 289.202 5.325 334.184 6.27q1.67.04 11.65-1.07a7.4 7.4 0 0 0 1.81-.43c12.36-4.62 15.8-15.22 15.79-27.54q-.06-46.7 0-181.14a.53.53 0 0 1 .53-.53q16.54-.09 34 .14c3.605.063 6.912-.218 10.15-1.83 6.943-3.935 8.655-12.187 6.81-19.48-.7-2.35-3.12-6.1-4.64-7.52-33.203-29.963-46.055-45.623-68.09-63.66-1.438-32.839-.245-65.7-.88-98.54q-.1-5.17-1.19-7.22c-1.898-3.249-5.239-4.438-8.71-5.26-4.951-.577-18.216-.71-21.64-.6-4.638.119-10.694-.15-16.092-.14s-10.14.3-12.148 1.54c-4.51 3.086-6.1 5.46-6.1 10.24.564 36.324.762 9.898-.12 37.23-29.757-24.496-57.489-52.931-85.83-79.28Q247.02.86 241.98 0z"/><path style="display:inline" d="M234.48 0q-4.68 1.5-8.5 4.43-.12.1-7.12 6.48C107.268 112.786 102.446 121.215 7.59 207.83q-5.86 5.3-7.59 11.48v6.3q1.24 5.78 5.82 9.57c3.81 3.15 7.52 2.83 12.1 2.83 11.227.008 22.688.74 33.75.43a.99.99 0 0 1 1.34.93c1.151 61.18.143 122.202-.04 183.37-.06 15.176 7.216 20.266 7.596 19.78 54.507 19.425 289.202 5.325 334.184 6.27q1.67.04 11.65-1.07a7.4 7.4 0 0 0 1.81-.43c12.36-4.62 15.8-15.22 15.79-27.54q-.06-46.7 0-181.14a.53.53 0 0 1 .53-.53q16.54-.09 34 .14c3.605.063 6.912-.218 10.15-1.83 6.943-3.935 8.655-12.187 6.81-19.48-.7-2.35-3.12-6.1-4.64-7.52-33.203-29.963-46.055-45.623-68.09-63.66-1.438-32.839-.245-65.7-.88-98.54q-.1-5.17-1.19-7.22c-1.898-3.249-5.239-4.438-8.71-5.26-4.951-.577-18.216-.71-21.64-.6-4.638.119-10.694-.15-16.092-.14s-10.14.3-12.148 1.54c-4.51 3.086-6.1 5.46-6.1 10.24.564 36.324.762 9.898-.12 37.23-29.757-24.496-57.489-52.931-85.83-79.28Q247.02.86 241.98 0z"/></g><g style="animation:colorCycle 1.5s ease-in-out infinite;display:inline" fill="#f95"><path d="M303.69 72.21c-6.47 9.74-14.29 20.35-19.81 28.5q-7.04 10.4-13.47 18.46-1.34 1.68-14.18 18.94c-10.99 14.77-22.57 29.03-33.51 43.13q-12.75 16.44-17.78 22.4-.87 1.04-9.27 11.79-15.27 19.56-32.59 35.9a1844 1844 0 0 0-15.32 14.68C88.818 322.959 28.8 379.764 18.38 385.22c25.366-38.218 66.027-93.66 77.83-108.32q5.62-6.83 9.47-11.88 19.35-25.36 46.01-57.34c3.41-4.09 6.48-7.7 10.24-11.43q39.07-38.72 55.58-54.24c18.12-17.03 38.08-35.81 53.39-49.61 12.4-11.173 44.81-41.007 47.29-42.13-1.659 5.649-11.887 18.253-14.5 21.94m117.42 5.9a477 477 0 0 0-19.72 25.74q-40.1 50.72-56.14 70.4-20.55 25.2-61.07 72.44-5.82 6.77-13.55 16.19-4.55 5.52-19.71 22.88c-15.223 15.947-30.671 31.813-46.75 46.92C147.939 390.53 4.903 519.195 3.1 520.41c41.96-63.988 94.475-125.786 142.59-184.94q14.67-17.92 35.16-41.93 27.28-31.97 35.68-41.53 5.23-5.95 22.84-23.14c29.676-28.485 58.971-57.38 88.87-85.63 66.034-61.253 72.438-67.07 74.69-69.25 30.797-26.153 53.25-47.945 58.6-50.13.377-.155 2.052.691-40.42 54.25m12.85 98.21c-10.714 15.29-21.93 30.839-47.78 64.66-11.87 15.73-18.85 25.36-30.39 39.63-14.2 17.53-28.25 35.56-41.45 52.06-5.6 7.01-10.56 11.59-17.51 18.24-24.786 24.55-49.995 48.675-75.45 72.53-17.084 17.169-73.504 67.08-74.59 66.76 6.354-13.823 18.436-28.531 27.37-41.8a2702 2702 0 0 1 31.16-41.62q6.15-8.06 17.84-23.46c18.75-24.7 35.61-45.21 59.87-74.53q2.19-2.65 20.48-20.35c15.39-14.91 34.13-34.05 49.51-48.1 12.74-11.64 24.41-23.58 36.39-33.94q1.28-1.1 39.57-35.68c.415-.506 17.55-17.072 20.8-18.1.89-.279-14.91 22.752-15.82 23.7" style="display:inline"/></g></svg>